<svg width="164" height="50" viewBox="0 0 164 50" fill="none" xmlns="http://www.w3.org/2000/svg">
<circle cx="25" cy="25" r="25" fill="black"/>
<path d="M38.2013 19.5075C36.6831 14.8274 33.8188 11.4288 31.7899 11.8916C31.7979 11.8897 31.8056 11.887 31.8136 11.885L29.5099 12.447C29.5099 12.447 25.2048 17.1754 17.8502 20.4125C17.9541 21.5252 18.2109 22.8195 18.6812 24.2692C19.1514 25.719 19.7111 26.9386 20.2907 27.9361C28.5128 27.3734 35.0293 29.462 35.0293 29.462L37.333 28.9C37.325 28.902 37.3168 28.9032 37.3088 28.9051C39.3184 28.3827 39.7194 24.1876 38.2013 19.5075ZM36.1229 27.8069C35.8625 27.8704 35.5072 27.7126 35.3184 27.6123C34.8612 27.3707 34.3578 26.9425 33.8622 26.3757C32.7536 25.1074 31.7779 23.2823 31.1142 21.2363C30.4505 19.1903 30.1861 17.1925 30.3695 15.6083C30.4516 14.9005 30.6237 14.3076 30.8686 13.8947C30.9695 13.7237 31.1778 13.4284 31.4382 13.3649C31.6986 13.3014 32.0538 13.4592 32.2427 13.5595C32.6999 13.8011 33.2032 14.2293 33.6988 14.7961C34.8075 16.0644 35.7834 17.8902 36.4468 19.9355C37.1103 21.9807 37.375 23.9793 37.1916 25.5635C37.1095 26.2713 36.9373 26.8642 36.6924 27.2771C36.5913 27.4473 36.3833 27.7434 36.1229 27.8069ZM16.7543 24.7393C16.3619 23.5296 16.0861 22.3276 15.9345 21.1919C14.6687 21.6655 13.5427 22.0351 12.1144 22.3835C10.2516 22.838 10.2516 22.838 10.2516 22.838L9.42675 25.4192L10.0929 27.4726L12.3485 29.3024C12.3485 29.3024 12.3485 29.3024 14.2114 28.848C15.6388 28.4998 16.8218 28.3061 18.1876 28.1378C17.6343 27.1001 17.147 25.9497 16.7546 24.74L16.7543 24.7393ZM21.5947 28.9106L17.8544 29.2068L22.5573 36.1416C22.8003 36.5006 23.3223 36.584 23.7168 36.3277L26.6511 34.419C27.0456 34.1627 27.0904 33.7094 26.7505 33.4127L21.5947 28.9106ZM34.6833 23.3691C34.5829 23.3936 34.4462 23.3328 34.3733 23.2943C34.1973 23.2013 34.0028 23.0364 33.812 22.8175C33.3847 22.3281 33.0089 21.6251 32.7531 20.8365C32.4973 20.0479 32.3953 19.2781 32.4657 18.6674C32.497 18.3943 32.5641 18.1664 32.6581 18.0067C32.6972 17.9409 32.7773 17.8272 32.8777 17.8027C32.9782 17.7782 33.1149 17.839 33.1878 17.8775C33.3637 17.9705 33.5582 18.1354 33.7491 18.3543C34.1762 18.8429 34.5521 19.5467 34.8079 20.3353C35.0638 21.1239 35.1658 21.8937 35.0953 22.5044C35.064 22.7775 34.997 23.0054 34.903 23.1651C34.8639 23.2309 34.7838 23.3446 34.6833 23.3691Z" fill="#267800"/>
<path d="M55.402 30.344H59.632V32H53.35V19.49H55.402V30.344ZM60.664 26.996C60.664 26 60.868 25.118 61.276 24.35C61.696 23.582 62.26 22.988 62.968 22.568C63.688 22.136 64.48 21.92 65.344 21.92C66.124 21.92 66.802 22.076 67.378 22.388C67.966 22.688 68.434 23.066 68.782 23.522V22.082H70.852V32H68.782V30.524C68.434 30.992 67.96 31.382 67.36 31.694C66.76 32.006 66.076 32.162 65.308 32.162C64.456 32.162 63.676 31.946 62.968 31.514C62.26 31.07 61.696 30.458 61.276 29.678C60.868 28.886 60.664 27.992 60.664 26.996ZM68.782 27.032C68.782 26.348 68.638 25.754 68.35 25.25C68.074 24.746 67.708 24.362 67.252 24.098C66.796 23.834 66.304 23.702 65.776 23.702C65.248 23.702 64.756 23.834 64.3 24.098C63.844 24.35 63.472 24.728 63.184 25.232C62.908 25.724 62.77 26.312 62.77 26.996C62.77 27.68 62.908 28.28 63.184 28.796C63.472 29.312 63.844 29.708 64.3 29.984C64.768 30.248 65.26 30.38 65.776 30.38C66.304 30.38 66.796 30.248 67.252 29.984C67.708 29.72 68.074 29.336 68.35 28.832C68.638 28.316 68.782 27.716 68.782 27.032ZM75.5993 23.54C75.9473 23.084 76.4213 22.7 77.0213 22.388C77.6213 22.076 78.2993 21.92 79.0553 21.92C79.9193 21.92 80.7053 22.136 81.4133 22.568C82.1333 22.988 82.6973 23.582 83.1053 24.35C83.5133 25.118 83.7173 26 83.7173 26.996C83.7173 27.992 83.5133 28.886 83.1053 29.678C82.6973 30.458 82.1333 31.07 81.4133 31.514C80.7053 31.946 79.9193 32.162 79.0553 32.162C78.2993 32.162 77.6273 32.012 77.0393 31.712C76.4513 31.4 75.9713 31.016 75.5993 30.56V36.716H73.5473V22.082H75.5993V23.54ZM81.6293 26.996C81.6293 26.312 81.4853 25.724 81.1973 25.232C80.9213 24.728 80.5493 24.35 80.0813 24.098C79.6253 23.834 79.1333 23.702 78.6053 23.702C78.0893 23.702 77.5973 23.834 77.1293 24.098C76.6733 24.362 76.3013 24.746 76.0133 25.25C75.7373 25.754 75.5993 26.348 75.5993 27.032C75.5993 27.716 75.7373 28.316 76.0133 28.832C76.3013 29.336 76.6733 29.72 77.1293 29.984C77.5973 30.248 78.0893 30.38 78.6053 30.38C79.1333 30.38 79.6253 30.248 80.0813 29.984C80.5493 29.708 80.9213 29.312 81.1973 28.796C81.4853 28.28 81.6293 27.68 81.6293 26.996ZM90.0485 32.162C89.1125 32.162 88.2665 31.952 87.5105 31.532C86.7545 31.1 86.1605 30.5 85.7285 29.732C85.2965 28.952 85.0805 28.052 85.0805 27.032C85.0805 26.024 85.3025 25.13 85.7465 24.35C86.1905 23.57 86.7965 22.97 87.5645 22.55C88.3325 22.13 89.1905 21.92 90.1385 21.92C91.0865 21.92 91.9445 22.13 92.7125 22.55C93.4805 22.97 94.0865 23.57 94.5305 24.35C94.9745 25.13 95.1965 26.024 95.1965 27.032C95.1965 28.04 94.9685 28.934 94.5125 29.714C94.0565 30.494 93.4325 31.1 92.6405 31.532C91.8605 31.952 90.9965 32.162 90.0485 32.162ZM90.0485 30.38C90.5765 30.38 91.0685 30.254 91.5245 30.002C91.9925 29.75 92.3705 29.372 92.6585 28.868C92.9465 28.364 93.0905 27.752 93.0905 27.032C93.0905 26.312 92.9525 25.706 92.6765 25.214C92.4005 24.71 92.0345 24.332 91.5785 24.08C91.1225 23.828 90.6305 23.702 90.1025 23.702C89.5745 23.702 89.0825 23.828 88.6265 24.08C88.1825 24.332 87.8285 24.71 87.5645 25.214C87.3005 25.706 87.1685 26.312 87.1685 27.032C87.1685 28.1 87.4385 28.928 87.9785 29.516C88.5305 30.092 89.2205 30.38 90.0485 30.38ZM99.277 23.522C99.577 23.018 99.973 22.628 100.465 22.352C100.969 22.064 101.563 21.92 102.247 21.92V24.044H101.725C100.921 24.044 100.309 24.248 99.889 24.656C99.481 25.064 99.277 25.772 99.277 26.78V32H97.225V22.082H99.277V23.522ZM111.675 29.444H106.437L105.537 32H103.395L107.877 19.472H110.253L114.735 32H112.575L111.675 29.444ZM111.099 27.77L109.065 21.956L107.013 27.77H111.099ZM116 26.996C116 26 116.204 25.118 116.612 24.35C117.032 23.582 117.596 22.988 118.304 22.568C119.024 22.136 119.822 21.92 120.698 21.92C121.346 21.92 121.982 22.064 122.606 22.352C123.242 22.628 123.746 23 124.118 23.468V18.68H126.188V32H124.118V30.506C123.782 30.986 123.314 31.382 122.714 31.694C122.126 32.006 121.448 32.162 120.68 32.162C119.816 32.162 119.024 31.946 118.304 31.514C117.596 31.07 117.032 30.458 116.612 29.678C116.204 28.886 116 27.992 116 26.996ZM124.118 27.032C124.118 26.348 123.974 25.754 123.686 25.25C123.41 24.746 123.044 24.362 122.588 24.098C122.132 23.834 121.64 23.702 121.112 23.702C120.584 23.702 120.092 23.834 119.636 24.098C119.18 24.35 118.808 24.728 118.52 25.232C118.244 25.724 118.106 26.312 118.106 26.996C118.106 27.68 118.244 28.28 118.52 28.796C118.808 29.312 119.18 29.708 119.636 29.984C120.104 30.248 120.596 30.38 121.112 30.38C121.64 30.38 122.132 30.248 122.588 29.984C123.044 29.72 123.41 29.336 123.686 28.832C123.974 28.316 124.118 27.716 124.118 27.032ZM137.865 22.082V32H135.813V30.83C135.489 31.238 135.063 31.562 134.535 31.802C134.019 32.03 133.467 32.144 132.879 32.144C132.099 32.144 131.397 31.982 130.773 31.658C130.161 31.334 129.675 30.854 129.315 30.218C128.967 29.582 128.793 28.814 128.793 27.914V22.082H130.827V27.608C130.827 28.496 131.049 29.18 131.493 29.66C131.937 30.128 132.543 30.362 133.311 30.362C134.079 30.362 134.685 30.128 135.129 29.66C135.585 29.18 135.813 28.496 135.813 27.608V22.082H137.865ZM139.889 26.996C139.889 26 140.093 25.118 140.501 24.35C140.921 23.582 141.485 22.988 142.193 22.568C142.913 22.136 143.705 21.92 144.569 21.92C145.349 21.92 146.027 22.076 146.603 22.388C147.191 22.688 147.659 23.066 148.007 23.522V22.082H150.077V32H148.007V30.524C147.659 30.992 147.185 31.382 146.585 31.694C145.985 32.006 145.301 32.162 144.533 32.162C143.681 32.162 142.901 31.946 142.193 31.514C141.485 31.07 140.921 30.458 140.501 29.678C140.093 28.886 139.889 27.992 139.889 26.996ZM148.007 27.032C148.007 26.348 147.863 25.754 147.575 25.25C147.299 24.746 146.933 24.362 146.477 24.098C146.021 23.834 145.529 23.702 145.001 23.702C144.473 23.702 143.981 23.834 143.525 24.098C143.069 24.35 142.697 24.728 142.409 25.232C142.133 25.724 141.995 26.312 141.995 26.996C141.995 27.68 142.133 28.28 142.409 28.796C142.697 29.312 143.069 29.708 143.525 29.984C143.993 30.248 144.485 30.38 145.001 30.38C145.529 30.38 146.021 30.248 146.477 29.984C146.933 29.72 147.299 29.336 147.575 28.832C147.863 28.316 148.007 27.716 148.007 27.032ZM157.776 21.92C158.556 21.92 159.252 22.082 159.864 22.406C160.488 22.73 160.974 23.21 161.322 23.846C161.67 24.482 161.844 25.25 161.844 26.15V32H159.81V26.456C159.81 25.568 159.588 24.89 159.144 24.422C158.7 23.942 158.094 23.702 157.326 23.702C156.558 23.702 155.946 23.942 155.49 24.422C155.046 24.89 154.824 25.568 154.824 26.456V32H152.772V22.082H154.824V23.216C155.16 22.808 155.586 22.49 156.102 22.262C156.63 22.034 157.188 21.92 157.776 21.92Z" fill="white"/>
</svg>
